<svg id="logo" xmlns="http://www.w3.org/2000/svg" viewBox="0 0 418.62 65.58"><defs><style>.cls-1{fill:#ad9ecd;}.cls-2{fill:#1d1752;}</style></defs><path class="cls-1" d="M35,41.31,45.41,14.24C27,6.76,5.56,21.33,6,41.31c.19,11.1,5.14,19,12.07,23.61l-.72,11.73L35,69.9c14.35,0,28.69-9.53,29-28.59Z" transform="translate(-5.97 -11.07)"/><path class="cls-1" d="M68.37,38.14A29.14,29.14,0,0,0,49.8,11.07L39.36,38.14Z" transform="translate(-5.97 -11.07)"/><path class="cls-2" d="M99.76,36.19a4,4,0,0,0-2-1.51,6.88,6.88,0,0,0-4.07-.32,6.28,6.28,0,0,0-1.51.53,3.9,3.9,0,0,0-1.21,1,2.71,2.71,0,0,0-.63,1.44A2.19,2.19,0,0,0,90.71,39a3.6,3.6,0,0,0,1.4,1.1,12.27,12.27,0,0,0,2.12.79c.8.23,1.61.48,2.43.76a18,18,0,0,1,2.4,1,7.24,7.24,0,0,1,2,1.5,5.64,5.64,0,0,1,1.25,2.29,7.71,7.71,0,0,1,.11,3.33,10.55,10.55,0,0,1-1.55,4.37,10.94,10.94,0,0,1-3,3.09A12.6,12.6,0,0,1,94,59a17.33,17.33,0,0,1-4.51.59,15.07,15.07,0,0,1-5.3-.89,11.45,11.45,0,0,1-4.29-2.88l5.47-5.18a5.73,5.73,0,0,0,2.27,2.1,6.49,6.49,0,0,0,3.08.74,7.4,7.4,0,0,0,1.65-.19,5.88,5.88,0,0,0,1.57-.57,4,4,0,0,0,1.21-1,2.91,2.91,0,0,0,.61-1.4A2.16,2.16,0,0,0,95,48.25a8.39,8.39,0,0,0-2.44-1.34c-1-.37-2.06-.73-3.22-1.1a12.89,12.89,0,0,1-3.18-1.49,6.68,6.68,0,0,1-2.27-2.45,6.61,6.61,0,0,1-.49-4,10.22,10.22,0,0,1,1.55-4.24,11.13,11.13,0,0,1,3-3.05,13.32,13.32,0,0,1,3.94-1.85,16.2,16.2,0,0,1,9.18.11A9.33,9.33,0,0,1,105,31.22Z" transform="translate(-5.97 -11.07)"/><path class="cls-2" d="M133,47.29a16.13,16.13,0,0,1-1.51,4.92,13,13,0,0,1-7.27,6.49,16,16,0,0,1-5.6.93,14,14,0,0,1-5.38-.93,8.77,8.77,0,0,1-5.45-6.49,13.87,13.87,0,0,1-.1-4.92l2.58-18.44h6.62L114.34,47a6.71,6.71,0,0,0,.07,2.58A4.84,4.84,0,0,0,117.12,53a5.54,5.54,0,0,0,2.35.48A6.45,6.45,0,0,0,122,53a7.09,7.09,0,0,0,2.1-1.36,7.44,7.44,0,0,0,1.55-2.06,8.21,8.21,0,0,0,.82-2.58L129,28.85h6.61Z" transform="translate(-5.97 -11.07)"/><path class="cls-2" d="M141.69,28.85H153.3a19.47,19.47,0,0,1,4.29.45A8.88,8.88,0,0,1,161,30.78a6.14,6.14,0,0,1,2.07,2.8,8.58,8.58,0,0,1,.3,4.39,10.23,10.23,0,0,1-2.42,5.4,8.8,8.8,0,0,1-5.21,2.82l5.85,12.68h-7.93l-4.62-12h-3.26l-1.66,12h-6.61Zm4.87,12.42h3.9q.9,0,1.89-.06a6.33,6.33,0,0,0,1.84-.38,3.92,3.92,0,0,0,1.49-1,3.39,3.39,0,0,0,.8-1.91,2.76,2.76,0,0,0-.21-1.82,2.59,2.59,0,0,0-1.06-1,4.87,4.87,0,0,0-1.59-.49,13.83,13.83,0,0,0-1.8-.12H147.5Z" transform="translate(-5.97 -11.07)"/><path class="cls-2" d="M165.43,28.85H173l4.66,19.67h.08L188,28.85h7.08l-16.58,30h-5.3Z" transform="translate(-5.97 -11.07)"/><path class="cls-2" d="M198.5,28.85h20.39L218,35H204.26l-.8,5.59h13l-.84,6.11h-13l-.85,6.1H216.3l-.84,6.11H194.3Z" transform="translate(-5.97 -11.07)"/><path class="cls-2" d="M229.91,46.06l-8.86-17.21h8.23l4.79,11.24,8.31-11.24h7.84L236.53,46.06l-1.78,12.81h-6.62Z" transform="translate(-5.97 -11.07)"/><path class="cls-2" d="M274.85,28.85h5.47l8.86,30h-7.46L280,52.51H268.36L265,58.87h-7.29Zm1.31,8.73-5,9.33h7.34Z" transform="translate(-5.97 -11.07)"/><path class="cls-2" d="M310.21,36.19a4,4,0,0,0-2-1.51,6.88,6.88,0,0,0-4.07-.32,6.28,6.28,0,0,0-1.51.53,3.9,3.9,0,0,0-1.21,1,2.71,2.71,0,0,0-.63,1.44,2.19,2.19,0,0,0,.36,1.67,3.6,3.6,0,0,0,1.4,1.1,12.27,12.27,0,0,0,2.12.79c.8.23,1.61.48,2.43.76a18,18,0,0,1,2.4,1,7.24,7.24,0,0,1,2,1.5,5.64,5.64,0,0,1,1.25,2.29,7.71,7.71,0,0,1,.11,3.33,10.55,10.55,0,0,1-1.55,4.37,10.94,10.94,0,0,1-3,3.09A12.6,12.6,0,0,1,304.42,59a17.33,17.33,0,0,1-4.51.59,15.07,15.07,0,0,1-5.3-.89,11.45,11.45,0,0,1-4.29-2.88l5.47-5.18a5.73,5.73,0,0,0,2.27,2.1,6.49,6.49,0,0,0,3.08.74,7.4,7.4,0,0,0,1.65-.19,5.88,5.88,0,0,0,1.57-.57,4,4,0,0,0,1.21-1,2.91,2.91,0,0,0,.61-1.4,2.16,2.16,0,0,0-.74-2.14A8.39,8.39,0,0,0,303,46.91c-1-.37-2.06-.73-3.22-1.1a12.89,12.89,0,0,1-3.18-1.49,6.68,6.68,0,0,1-2.27-2.45,6.61,6.61,0,0,1-.49-4,10.22,10.22,0,0,1,1.55-4.24,11.13,11.13,0,0,1,3-3.05,13.32,13.32,0,0,1,3.94-1.85,16.2,16.2,0,0,1,9.18.11,9.33,9.33,0,0,1,3.92,2.41Z" transform="translate(-5.97 -11.07)"/><path class="cls-2" d="M334.54,36.19a4,4,0,0,0-2-1.51,7.41,7.41,0,0,0-2.54-.49,7.7,7.7,0,0,0-1.53.17,6.06,6.06,0,0,0-1.5.53,3.9,3.9,0,0,0-1.21,1,2.8,2.8,0,0,0-.64,1.44,2.28,2.28,0,0,0,.36,1.67,3.68,3.68,0,0,0,1.4,1.1,12.92,12.92,0,0,0,2.12.79c.81.23,1.62.48,2.44.76a17.34,17.34,0,0,1,2.39,1,7.44,7.44,0,0,1,2,1.5,5.76,5.76,0,0,1,1.25,2.29,7.73,7.73,0,0,1,.1,3.33,10.54,10.54,0,0,1-1.54,4.37,11.22,11.22,0,0,1-3,3.09A12.7,12.7,0,0,1,328.76,59a17.4,17.4,0,0,1-4.52.59,15.07,15.07,0,0,1-5.3-.89,11.41,11.41,0,0,1-4.28-2.88l5.47-5.18a5.67,5.67,0,0,0,2.27,2.1,6.45,6.45,0,0,0,3.07.74,7.27,7.27,0,0,0,1.65-.19,5.76,5.76,0,0,0,1.57-.57,3.87,3.87,0,0,0,1.21-1,2.92,2.92,0,0,0,.62-1.4,2.14,2.14,0,0,0-.75-2.14,8.2,8.2,0,0,0-2.43-1.34c-1-.37-2.07-.73-3.23-1.1a13.24,13.24,0,0,1-3.18-1.49,6.65,6.65,0,0,1-2.26-2.45,6.54,6.54,0,0,1-.49-4,10,10,0,0,1,1.55-4.24,11,11,0,0,1,3-3.05,13.2,13.2,0,0,1,3.94-1.85,16.2,16.2,0,0,1,9.18.11,9.33,9.33,0,0,1,3.92,2.41Z" transform="translate(-5.97 -11.07)"/><path class="cls-2" d="M367.78,47.29a16.12,16.12,0,0,1-1.5,4.92,13.22,13.22,0,0,1-2.95,3.9A13.37,13.37,0,0,1,359,58.7a16,16,0,0,1-5.6.93A14.09,14.09,0,0,1,348,58.7a8.73,8.73,0,0,1-5.44-6.49,13.86,13.86,0,0,1-.11-4.92l2.59-18.44h6.61L349.13,47a6.92,6.92,0,0,0,.06,2.58,4.93,4.93,0,0,0,1,2.06A4.83,4.83,0,0,0,351.9,53a5.59,5.59,0,0,0,2.36.48,6.48,6.48,0,0,0,2.48-.48,7.2,7.2,0,0,0,3.64-3.42,8.22,8.22,0,0,0,.83-2.58l2.54-18.19h6.62Z" transform="translate(-5.97 -11.07)"/><path class="cls-2" d="M376.47,28.85h11.62a19.45,19.45,0,0,1,4.28.45,8.74,8.74,0,0,1,3.39,1.48,6.09,6.09,0,0,1,2.08,2.8,8.8,8.8,0,0,1,.3,4.39,10.23,10.23,0,0,1-2.42,5.4,8.82,8.82,0,0,1-5.21,2.82l5.85,12.68h-7.93l-4.62-12h-3.27l-1.65,12h-6.61Zm4.88,12.42h3.9c.59,0,1.22,0,1.88-.06a6.4,6.4,0,0,0,1.85-.38,3.89,3.89,0,0,0,1.48-1,3.33,3.33,0,0,0,.81-1.91,2.89,2.89,0,0,0-.21-1.82,2.65,2.65,0,0,0-1.06-1,5,5,0,0,0-1.59-.49,13.83,13.83,0,0,0-1.8-.12h-4.33Z" transform="translate(-5.97 -11.07)"/><path class="cls-2" d="M404.2,28.85h20.39L423.74,35H410l-.8,5.59h13l-.85,6.11h-13l-.85,6.1H422l-.85,6.11H400Z" transform="translate(-5.97 -11.07)"/></svg>